<?xml version="1.0" encoding="utf-8"?>
<!-- Generator: Adobe Adobe Illustrator 29.2.0, SVG Export Plug-In . SVG Version: 6.00 Build 0)  -->
<svg version="1.1" id="Layer_1" xmlns="http://www.w3.org/2000/svg" xmlns:xlink="http://www.w3.org/1999/xlink" x="0px" y="0px"
	 width="902px" height="818px" viewBox="0 0 902 818" style="enable-background:new 0 0 902 818;" xml:space="preserve">
<style type="text/css">
	.st0{fill:#0A7BBE;}
	.st1{fill:#FEC210;}
</style>
<g>
	<path class="st0" d="M66.8,4.6c140.7,0.2,280.4-0.1,420.2,0.8c30,0.2,59.9,3.6,89.3,11.4c20.5,5.4,41,10.5,60.4,18.8
		c26.3,11.2,52,23.7,76.2,39.4c18.7,12.2,35.7,26.3,52.2,41c11.6,10.4,23,21.5,33.1,33.7c16.2,19.6,30.7,40.2,43.4,62.2
		c14.4,24.9,25.8,51.1,34.4,78.4c2.7,8.6,5.9,17.4,5.1,28c-6.7,1.1-14,1.1-21.1,2.1c-17.3,2.5-34.6,4.3-51.7,8.4
		c-13.5,3.2-27.1,6-40.6,9.6c-19.3,5.1-38,12-56.8,18.8c-21.3,7.6-42,16.8-62.1,27.1c-15.4,7.9-30.2,17.2-45.1,26.1
		c-15.9,9.5-30.6,20.7-45.7,31.3c-14.7,10.3-28.5,21.8-40.9,34.6c-18.7,19.2-36.7,39.1-51.1,62.2c-10.1,16.2-19.3,32.5-25,50.7
		c-4.5,14.6-7.9,29.3-6.8,44.7c0.3,4.2,0.5,7.1,6,7.7c31.3,3.5,62-1.5,91.7-10c32.5-9.3,62-26.1,87.6-48.2
		c14.2-12.3,25.5-27.9,36.4-43.6c13.8-19.8,22.2-41.7,27.4-64.6c3.8-16.7,6.1-34,6.1-51.2c0-5.2,1.5-8.3,6.2-10.1
		c21.5-8.4,42.7-17.4,64.9-24c21.4-6.4,43.1-11.3,64.8-16.3c11.6-2.7,23.7-3.6,35.6-4.4c10.2-0.6,20.4-3.8,31.8-1.2
		c-0.2,20.2,6.2,40.3,2.3,61.4c-2.3,12.3,0,25.2-1.8,37.9c-3.3,23.9-8.7,47.2-16.2,70.2c-8,24.5-17.4,48.5-30.9,70.3
		c-14.9,24.2-31.6,47.3-51.9,67.4c-11.9,11.8-23.7,23.5-37.3,33.9c-11.9,9.2-24.2,18.8-36.3,27.9c-14.5,10.8-31.2,18.8-47.9,26.2
		c-19,8.4-38,16.6-57.6,23.5c-26.1,9.2-53.3,13.7-80.3,18.5c-9.3,1.7-19.2,2.2-29,2.4c-65.6,1.7-131.2,2.4-196.8,1.4
		c-93.9-1.5-187.8,0.9-281.8,0.4c-9.4,0-12.2-4.2-12.2-11.7c-0.2-30.9-1.5-61.9,0.4-92.7c1.5-24.9,0.6-49.7,1.2-74.5
		c0.1-6.6,2.1-8.6,8.7-8.7c24-0.2,48.1,0.7,71.8-2.1c21.9-2.6,43.9-5.7,65.7-9.2c29.9-4.8,58.4-14.5,87.2-23
		c18.4-5.4,36-14.1,53.4-22.8c21.3-10.7,41.8-22.5,61.5-35.8c18.1-12.2,35.9-24.9,52.6-39.1c11.5-9.8,23.7-18.8,34.4-29.4
		c12.4-12.2,26.2-22.7,39.5-33.8c21.3-17.7,43.2-34.4,66.6-49.3c22.9-14.6,46.4-28,70.4-40.4c10.5-5.4,21.6-9.8,32.8-13.5
		c7.5-2.4,7.8-5.9,5.8-12.4c-6.6-20.9-18.9-38.5-31.4-55.9c-22.5-31.2-52.9-53-87.9-67.2c-22.6-9.2-46.9-14.8-72.1-15.5
		c-83.2-2.6-166.3-0.5-249.5-0.5c-56.1,0-112.2,0.6-168.4,0.5c-9.5,0-19.1,0-28.6,0.1c-10.6,0.1-12.3-2.1-12.3-12.2
		c0-48.4,0.2-96.8-0.2-145.3c-0.1-7.8,2.1-10.4,10-10.1C39.8,5.4,52.9,4.8,66.8,4.6z"/>
	<path class="st0" d="M16.9,281.4c0.6-23-1.5-45.2,1.7-67.7c18.1,0,35.3,0,52.5,0c36.8,0,73.7,0.3,110.5-0.2
		c8.5-0.1,11.4,2.6,10.2,10.7c-0.4,2.9,0,5.9-0.1,8.9c-0.7,41.1,3,82.2,1.9,123.4c-0.5,19.3-0.3,19.5-19.8,19.5
		c-49,0-98-0.2-147,0.2c-7.9,0.1-10.2-2.3-10-10.1C17.1,338.1,16.9,310.2,16.9,281.4z"/>
	<path class="st0" d="M334.5,213.6c22.9,0,44.9,0.2,66.9-0.1c6.3-0.1,8.7,2.2,8.2,8.3c-0.3,3.5-0.1,7.1-0.1,10.7
		c-0.8,42.7,3.1,85.2,1.8,127.9c-0.4,12.6-2.9,15.4-15.6,15.5c-50.5,0-101.1-0.1-151.6,0.1c-7.3,0-9.8-1.9-9.7-9.5
		c0.3-46.6,0.2-93.2,0.1-139.9c0-4.3,1.3-8.1,2.5-13C269,213.6,301.3,213.6,334.5,213.6z"/>
	<path class="st0" d="M33.1,577.3c-3.5,0-6.2,0.1-8.9,0c-5.2-0.2-7.5-2.5-7.5-8.2c0.2-48.4,0.3-96.8,0-145.2
		c-0.1-8.6,4.7-8.7,10.7-8.7c41.3,0,82.7,0,124,0c10.4,0,20.8,0,31.2,0c7.4,0,11.2,2.7,11.2,11c-0.3,41.6-0.3,83.2-0.1,124.7
		c0,7.2-2.6,11.1-9.4,12.1c-27.3,4.3-54.6,9.2-82,12.3C79.7,577.8,56.8,577.9,33.1,577.3z"/>
	<path class="st0" d="M405.9,428.9c0.1,12.5-10.5,16.5-17,23c-15.5,15.4-34.5,26.6-51.9,39.8c-5.8,4.3-12.1,7.9-18.5,11.4
		c-19.5,10.7-38.4,22.6-59.6,29.9c-5.1,1.8-9.8,4.8-14.8,7.2c-6.1,3-9.5,1.6-9.5-5.8c0.1-37.1,0.2-74.3-0.1-111.4
		c-0.1-7.5,4.2-8.3,9.6-7.9c50.1,3.9,100.3,0.8,150.4,1.6C403,416.8,407.5,418.9,405.9,428.9z"/>
	<circle class="st1" cx="528.6" cy="541.7" r="26.4"/>
</g>
</svg>
